<svg xmlns="http://www.w3.org/2000/svg" width="178" height="48" viewBox="0 0 178 48">
  <g id="Group_1" data-name="Group 1" transform="translate(-622 469)">
    <g id="logo_NoSlogan" transform="translate(622 -469)">
      <g id="Group_28433" data-name="Group 28433" transform="translate(0)">
        <path id="Path_12273" data-name="Path 12273" d="M36.65,20.951l-9.233,5.318L9.241,36.737V47.544l27.338-15.99.1-.056V20.965Z" transform="translate(-0.108 0.456)" fill="#616ce6"/>
        <path id="Path_12274" data-name="Path 12274" d="M21.213,15.133l-2.954-1.7,9.673-2.28V.436L.519,16.469l9.21,5.312Z" transform="translate(-0.498 -0.436)" fill="#2b3173"/>
        <path id="Path_12275" data-name="Path 12275" d="M9.731,21.112.521,15.8.5,15.812v10.62l.02.012,9.2,5.474L19.1,26.513Z" transform="translate(-0.5 0.233)" fill="#474fa9"/>
        <path id="Path_12276" data-name="Path 12276" d="M28.048,16.266,27.587,18.6,24.8,17l-7.1,4.089,9.337,5.386,9.233-5.318Z" transform="translate(0.272 0.252)" fill="#474fa9"/>
      </g>
      <g id="Group_28448" data-name="Group 28448" transform="translate(44.557 12.404)">
        <path id="Path_11970" data-name="Path 11970" d="M194.631,2761.621l.145-13.881-.048-.049-3.9,13.93h-3.087l-3.908-13.93-.048.049.145,13.881H179.64V2743.08h6.006l3.63,12.2h.048l3.582-12.2h6.018v18.541Z" transform="translate(-179.64 -2742.842)" fill="#2b3173"/>
        <path id="Path_11971" data-name="Path 11971" d="M376.161,2761.62v-18.54h4.667v18.54Z" transform="translate(-355.083 -2742.842)" fill="#2b3173"/>
        <g id="Group_19386" data-name="Group 19386" transform="translate(38.738 0.238)">
          <path id="Path_11976" data-name="Path 11976" d="M620.561,2878.81H616.74l5.065,3.691Z" transform="translate(-608.592 -2863.966)" fill="#2b3173"/>
          <path id="Path_11977" data-name="Path 11977" d="M549.265,2751.416h0l.567-1.91.176-.592h.072l1.767,5.953h0l2.237,6.819h5.065l-7.272-18.546H548.2l-7.333,18.546h5.012Z" transform="translate(-540.866 -2743.139)" fill="#2b3173"/>
        </g>
        <path id="Path_11978" data-name="Path 11978" d="M446.308,2754.171a4.264,4.264,0,0,0-.838-1.234,6.555,6.555,0,0,0-1.351-1.049,14.722,14.722,0,0,0-1.688-.86l-1.929-.849a4.286,4.286,0,0,1-1.676-1.132,1.387,1.387,0,0,1-.169-.755q0-1.4,1.6-1.4,1.411,0,1.676,1.745h4.619a5.653,5.653,0,0,0-1.206-3.526,5.493,5.493,0,0,0-2.243-1.533,7.479,7.479,0,0,0-2.7-.495,7.119,7.119,0,0,0-4.366,1.38,4.636,4.636,0,0,0-2.026,3.879,4.415,4.415,0,0,0,1.339,3.254,6.967,6.967,0,0,0,1.423,1.05,13.48,13.48,0,0,0,1.7.813l1.99.837.35.165a3.583,3.583,0,0,1,.627.376,1.53,1.53,0,0,1,.615,1.262q0,1.709-1.773,1.709a1.637,1.637,0,0,1-1.459-.778,2.937,2.937,0,0,1-.446-1.662h-4.643v.578a5.117,5.117,0,0,0,1.918,4.268,7.283,7.283,0,0,0,4.679,1.415,8.662,8.662,0,0,0,2.868-.437Z" transform="translate(-406.485 -2742.842)" fill="#2b3173"/>
        <path id="Path_12281" data-name="Path 12281" d="M22.374-154.737H10.114a4.864,4.864,0,0,0,1.671,3.433,5.1,5.1,0,0,0,3.558,1.441,5.314,5.314,0,0,0,2.909-.84,4.628,4.628,0,0,0,1.911-2.341h1.827a6.965,6.965,0,0,1-2.573,3.422,6.8,6.8,0,0,1-4.05,1.309,6.768,6.768,0,0,1-4.976-2.077,6.772,6.772,0,0,1-2.043-4.958,6.877,6.877,0,0,1,2.043-4.982,6.7,6.7,0,0,1,4.952-2.1,6.685,6.685,0,0,1,5,2.149,7.02,7.02,0,0,1,2.055,5.054Zm-1.743-1.549a5.5,5.5,0,0,0-1.791-3.289,5.045,5.045,0,0,0-3.474-1.309,5.073,5.073,0,0,0-3.474,1.308,5.442,5.442,0,0,0-1.779,3.289Zm14.436,2.629a5.055,5.055,0,0,1-1.623,3.806,5.38,5.38,0,0,1-3.87,1.537,5.569,5.569,0,0,1-4-1.489,5.265,5.265,0,0,1-1.611-3.926h1.827q.156,3.758,3.786,3.758A3.56,3.56,0,0,0,32.159-151a3.47,3.47,0,0,0,1.082-2.581,3.176,3.176,0,0,0-1.286-2.641,6.091,6.091,0,0,0-1.3-.732q-.589-.24-1.478-.5a15.909,15.909,0,0,1-1.827-.636,6.133,6.133,0,0,1-1.5-.864,4.042,4.042,0,0,1-1.394-3.3,4.59,4.59,0,0,1,1.5-3.518,5.13,5.13,0,0,1,3.618-1.369,4.943,4.943,0,0,1,3.57,1.4,4.727,4.727,0,0,1,1.478,3.542H32.8a3.223,3.223,0,0,0-.938-2.317,3.059,3.059,0,0,0-2.284-.984,3.261,3.261,0,0,0-2.332.9,2.976,2.976,0,0,0-.962,2.269,2.627,2.627,0,0,0,1.466,2.413,7.9,7.9,0,0,0,1.406.576l1.454.432a6.935,6.935,0,0,1,3.209,1.861A4.851,4.851,0,0,1,35.067-153.656ZM47.3-148.638v-7.4a6.581,6.581,0,0,0-.288-1.993,3.814,3.814,0,0,0-1-1.7,4.118,4.118,0,0,0-2.921-1.152,4.133,4.133,0,0,0-2.933,1.152,3.786,3.786,0,0,0-.985,1.657,6.392,6.392,0,0,0-.276,1.909v7.527H37.183v-18.2H38.9v6.471h.048a4.586,4.586,0,0,1,4.147-2.065,5.572,5.572,0,0,1,4.411,1.8,6.727,6.727,0,0,1,1.514,4.6v7.4Zm18.487-6.735a6.777,6.777,0,0,1-2.079,4.97,6.774,6.774,0,0,1-4.976,2.089,6.758,6.758,0,0,1-4.928-2.065,6.652,6.652,0,0,1-2.091-4.9,6.96,6.96,0,0,1,2.043-5.03,6.668,6.668,0,0,1,4.976-2.125,6.787,6.787,0,0,1,4.964,2.089A6.783,6.783,0,0,1,65.79-155.373Zm-1.719-.072a5.314,5.314,0,0,0-1.551-3.818,5.038,5.038,0,0,0-3.762-1.621,4.982,4.982,0,0,0-3.81,1.681,5.539,5.539,0,0,0-1.514,3.9,5.314,5.314,0,0,0,1.55,3.818,5.051,5.051,0,0,0,3.774,1.621,5,5,0,0,0,3.822-1.657,5.592,5.592,0,0,0,1.49-3.926Zm18.559.048a6.736,6.736,0,0,1-2.1,5.054,7.09,7.09,0,0,1-5.133,2.029A6,6,0,0,1,70.141-151h-.048v7.083H68.374v-18.164h1.719v2.353h.048a6.089,6.089,0,0,1,5.253-2.7,7.091,7.091,0,0,1,5.1,2,6.654,6.654,0,0,1,2.14,5.031Zm-1.731.072a5.453,5.453,0,0,0-1.551-3.974,5.32,5.32,0,0,0-3.955-1.585,5.121,5.121,0,0,0-3.846,1.645A5.427,5.427,0,0,0,70-155.349a5.344,5.344,0,0,0,1.551,3.865,5.158,5.158,0,0,0,3.846,1.621,5.355,5.355,0,0,0,3.93-1.549,5.283,5.283,0,0,0,1.574-3.913Z" transform="translate(50.813 167.15)" fill="#616ce6"/>
      </g>
    </g>
  </g>
</svg>
